# File created by Blade
# Date/Time:  Wed Jan 21 17:16:23 2015
# Frame Rate: 120.000 fps
#------------------------------------------------------
:FULLY-SPECIFIED
:DEGREES
480
root 18.872333 17.326699 -11.894950 -165.216039 -13.347373 -181.275695
Spine 69.457067 -6.377051 7.408931
Head -5.587933 -4.998067 -1.354205
LeftShoulder 21.279025 -43.103768 0.184349
LeftArm 32.228237 13.841148 -63.460310
LeftForeArm -9.334492 0.000000 26.300227
LeftHand -7.131811 0.000000 24.502962
LeftHandThumb1 -26.253704 0.000000 33.147579
RightShoulder 14.687150 7.019811 -5.932607
RightArm 45.372822 -1.192219 39.374284
RightForeArm -22.611995 -0.000000 13.234736
RightHand -10.446031 -0.000000 -10.110731
RightHandThumb1 -24.326973 -0.000000 -32.862282
LeftUpLeg -43.724531 40.304019 -16.354644
LeftLeg 114.796804 -0.000000 -0.000000
LeftFoot 44.654129 8.915945 -0.877208
LeftToeBase 54.028509 -0.000000 -0.000000
RightUpLeg -102.546677 4.458181 4.575243
RightLeg 116.541958 -0.000000 -0.000000
RightFoot -50.066760 -34.943801 25.757461
RightToeBase 23.314136 -0.000000 -0.000000
481
root 18.821381 17.340453 -11.891942 -165.247842 -13.058595 -181.278877
Spine 69.519388 -6.326934 7.368975
Head -5.567205 -4.834029 -1.526649
LeftShoulder 21.446872 -43.227811 0.062329
LeftArm 32.444827 13.569173 -63.527046
LeftForeArm -8.820657 0.000000 25.582158
LeftHand -7.257068 -0.000000 24.627351
LeftHandThumb1 -26.253704 0.000000 33.147579
RightShoulder 14.737324 6.997151 -5.960915
RightArm 45.444463 -1.066150 39.258931
RightForeArm -22.713917 -0.000000 13.152550
RightHand -10.387852 0.000000 -9.993614
RightHandThumb1 -24.326973 -0.000000 -32.862282
LeftUpLeg -43.644604 40.510844 -16.547816
LeftLeg 114.654355 -0.000000 -0.000000
LeftFoot 44.413796 8.966240 -0.952017
LeftToeBase 54.125463 -0.000000 -0.000000
RightUpLeg -102.511023 4.496906 4.493564
RightLeg 116.493175 -0.000000 -0.000000
RightFoot -49.871666 -34.795343 25.618856
RightToeBase 23.268481 -0.000000 -0.000000
482
root 18.770354 17.354330 -11.888611 -165.264264 -12.717587 -181.278852
Spine 69.576041 -6.235176 7.316356
Head -5.557585 -4.673695 -1.725372
LeftShoulder 21.484196 -43.278910 0.031995
LeftArm 32.711530 13.468342 -63.556026
LeftForeArm -8.706859 -0.000000 25.058509
LeftHand -7.437939 -0.000000 24.699075
LeftHandThumb1 -26.253704 0.000000 33.147579
RightShoulder 14.771989 7.123840 -5.973080
RightArm 45.438874 -1.062901 39.201806
RightForeArm -22.904907 -0.000000 13.087595
RightHand -10.350126 0.000000 -9.907614
RightHandThumb1 -24.326973 -0.000000 -32.862282
LeftUpLeg -43.597344 40.786236 -16.781681
LeftLeg 114.509188 -0.000000 -0.000000
LeftFoot 44.157291 9.089428 -0.959053
LeftToeBase 54.215800 -0.000000 -0.000000
RightUpLeg -102.489756 4.545368 4.442748
RightLeg 116.434105 -0.000000 -0.000000
RightFoot -49.625920 -34.692148 25.316297
RightToeBase 23.300368 -0.000000 -0.000000
483
root 18.719615 17.368083 -11.882174 -165.207187 -12.436344 -181.255758
Spine 69.530115 -6.214682 7.343557
Head -5.540848 -4.523455 -1.986485
LeftShoulder 21.461575 -43.319542 0.011712
LeftArm 32.931978 13.694915 -63.500149
LeftForeArm -9.156250 -0.000000 24.708376
LeftHand -7.466526 -0.000000 24.887497
LeftHandThumb1 -26.253704 0.000000 33.147579
RightShoulder 14.789373 7.300919 -5.992417
RightArm 45.382362 -1.148486 39.119037
RightForeArm -23.047536 -0.000000 13.033314
RightHand -10.333292 -0.000000 -9.891712
RightHandThumb1 -24.326973 -0.000000 -32.862282
LeftUpLeg -43.696013 40.990730 -17.059946
LeftLeg 114.417403 -0.000000 -0.000000
LeftFoot 43.797952 9.302180 -1.014028
LeftToeBase 54.167188 -0.000000 -0.000000
RightUpLeg -102.542899 4.554552 4.425855
RightLeg 116.397164 -0.000000 -0.000000
RightFoot -49.426312 -34.466694 25.187497
RightToeBase 23.134091 -0.000000 -0.000000
